<svg width="57" height="65" viewBox="0 0 57 65" fill="none" xmlns="http://www.w3.org/2000/svg">
<g id="Group 443">
<path id="Vector" d="M10.2598 12.2405C10.9946 6.47784 15.1169 1.76527 20.5572 0.40697C25.1157 -0.730873 30.5798 0.487568 33.9269 4.43683C36.4965 7.47582 36.8284 10.9486 36.8853 12.2879H33.9838C33.9838 12.2879 34.8775 6.77415 28.2946 3.46967C27.664 3.19232 23.5939 1.49266 19.2511 3.52419C13.9435 6.00611 13.0996 11.7807 13.0475 12.1742L10.2598 12.2405Z" fill="#09936F"/>
<path id="Vector_2" d="M17.7012 12.2405C18.4337 6.47784 22.556 1.76527 27.9987 0.40697C32.5548 -0.730873 38.0188 0.487568 41.3683 4.43683C43.938 7.47582 44.2698 10.9486 44.3267 12.2879H41.4323C41.4323 12.2879 42.3236 6.77415 35.7431 3.46967C35.1102 3.19232 31.04 1.49266 26.6972 3.52419C21.3921 6.00611 20.5339 11.7807 20.496 12.1742L17.7012 12.2405Z" fill="#09936F"/>
<path id="Vector_3" d="M56.1431 20.1934V54.1936C56.1434 55.4988 55.8866 56.7912 55.3873 57.9971C54.8881 59.203 54.1562 60.2988 53.2334 61.2218C52.3106 62.1448 51.215 62.877 50.0093 63.3765C48.8035 63.876 47.5111 64.1331 46.2059 64.1331H9.93717C8.632 64.1331 7.33962 63.876 6.13383 63.3765C4.92804 62.877 3.83248 62.1448 2.90969 61.2218C1.98691 60.2988 1.25499 59.203 0.755744 57.9971C0.256494 56.7912 -0.000311064 55.4988 2.82765e-07 54.1936V20.1934C-0.000311064 18.8883 0.256494 17.5958 0.755744 16.3899C1.25499 15.184 1.98691 14.0883 2.90969 13.1653C3.83248 12.2423 4.92804 11.5101 6.13383 11.0106C7.33962 10.511 8.632 10.2539 9.93717 10.2539H46.2059C47.5111 10.2539 48.8035 10.511 50.0093 11.0106C51.215 11.5101 52.3106 12.2423 53.2334 13.1653C54.1562 14.0883 54.8881 15.184 55.3873 16.3899C55.8866 17.5958 56.1434 18.8883 56.1431 20.1934Z" fill="#09936F"/>
<path id="Vector_4" opacity="0.18" d="M41.0972 24.3728L40.9621 24.1523L31.0462 30.8561C31.3817 30.8787 31.7183 30.8787 32.0537 30.8561C32.1533 30.8561 32.2505 30.8419 32.3453 30.8324C32.5823 30.8087 32.8194 30.7684 33.0564 30.7234C32.9901 30.8798 32.9237 31.0339 32.8621 31.1975C31.7242 34.054 31.115 37.1664 30.8045 39.2857C30.7808 39.465 30.6896 39.6286 30.5496 39.7431C30.4095 39.8576 30.2311 39.9144 30.0506 39.902C26.777 39.7076 21.7918 39.3449 18.8808 39.1197H18.831L15.0098 41.7012L15.1496 41.8909C15.4237 42.2128 15.8103 42.418 16.2306 42.4645C17.3115 42.5759 26.7746 43.2918 31.0676 43.5123L31.3402 43.5265L31.4184 47.0372C31.42 47.1082 31.4074 47.1789 31.3813 47.245C31.3552 47.3111 31.3161 47.3713 31.2664 47.422C31.2168 47.4728 31.1574 47.5132 31.0919 47.5407C31.0264 47.5683 30.9561 47.5824 30.885 47.5824L21.3438 47.4758L21.3106 50.2113L21.3888 50.318L22.676 52.0579L24.8118 54.9523L31.6152 64.1428H46.2056C47.5108 64.1428 48.8032 63.8857 50.009 63.3861C51.2147 62.8866 52.3103 62.1544 53.2331 61.2314C54.1559 60.3084 54.8878 59.2127 55.3871 58.0068C55.8863 56.8009 56.1431 55.5084 56.1428 54.2033V48.5923L41.0972 24.3728ZM29.3324 54.6134C29.3324 53.888 29.8539 53.3048 30.4773 53.3048C31.1055 53.3048 31.6128 53.9093 31.6057 54.6371C31.5986 55.3648 31.0818 55.948 30.4584 55.948C29.8302 55.9408 29.3158 55.3411 29.3324 54.6134Z" fill="#513510"/>
<path id="Vector_5" d="M34.2587 46.9799C34.2681 47.4284 34.188 47.8744 34.023 48.2915C33.8581 48.7087 33.6115 49.0888 33.2978 49.4096C32.9842 49.7303 32.6097 49.9852 32.1962 50.1595C31.7828 50.3337 31.3388 50.4237 30.8902 50.4243H30.8523L21.3892 50.3176H21.3086V50.2109L21.3394 47.4896L30.8807 47.5962C30.9518 47.5962 31.0221 47.5821 31.0876 47.5545C31.1531 47.527 31.2124 47.4866 31.2621 47.4358C31.3118 47.3851 31.3508 47.3249 31.3769 47.2588C31.403 47.1927 31.4156 47.1221 31.4141 47.051L31.3358 43.5403L31.2837 41.2456L34.1283 41.1816V41.3618L34.2587 46.9799Z" fill="white"/>
<path id="Vector_6" d="M30.5026 52.043H30.4766C29.1633 52.043 28.0871 53.1856 28.0705 54.5984C28.0539 56.0112 29.1206 57.1917 30.441 57.2059H30.4647C30.7823 57.2044 31.0961 57.1372 31.3866 57.0087C31.677 56.8803 31.9378 56.6932 32.1525 56.4592C32.6075 55.9675 32.8613 55.3228 32.8637 54.6529C32.8898 53.2282 31.8254 52.0596 30.5026 52.043ZM30.4671 55.9472C29.8389 55.9472 29.334 55.3404 29.3411 54.6126C29.3482 53.8849 29.8626 53.3041 30.4861 53.3041C31.1142 53.3041 31.6215 53.9086 31.6144 54.6363C31.6073 55.364 31.0929 55.9472 30.4695 55.9472H30.4671Z" fill="white"/>
<path id="Vector_7" d="M41.1479 24.6502L41.1194 26.6864C41.114 26.8811 41.0425 27.068 40.9167 27.2167C40.7909 27.3653 40.6183 27.4667 40.4273 27.5043C40.2447 27.5422 38.6707 28.3766 38.1042 29.0498C37.5797 29.6947 37.1325 30.3988 36.7719 31.1477C34.9798 34.7509 34.3185 39.6199 34.1336 41.3551C34.1051 41.6349 34.0862 41.8292 34.0791 41.9241L33.9937 42.9268C33.9858 43.028 33.955 43.1261 33.9036 43.2136C33.8402 43.3298 33.7455 43.426 33.6304 43.4914C33.5152 43.5567 33.384 43.5886 33.2517 43.5834L32.2443 43.5526C31.9906 43.5526 31.6896 43.5313 31.3482 43.517L31.0756 43.5028C26.7826 43.2824 17.3267 42.5665 16.2386 42.4551C15.8184 42.4085 15.4317 42.2033 15.1577 41.8814L15.0178 41.6918C15.009 41.678 15.0011 41.6638 14.9941 41.6491C14.9381 41.5532 14.8928 41.4514 14.859 41.3457C14.4987 40.2647 11.9314 32.5203 11.1444 30.1379C11.1129 30.0468 11.1003 29.9502 11.1074 29.8541C11.1144 29.758 11.1409 29.6643 11.1852 29.5787C11.2295 29.4931 11.2908 29.4175 11.3653 29.3563C11.4398 29.2951 11.5259 29.2497 11.6185 29.2229L13.6263 28.5994C13.7167 28.5699 13.8121 28.5587 13.9069 28.5666C14.0017 28.5746 14.0939 28.6014 14.1781 28.6456C14.2623 28.6898 14.3368 28.7505 14.3971 28.824C14.4575 28.8975 14.5025 28.9823 14.5295 29.0735C15.2288 31.2994 16.9663 36.7469 17.5637 38.5556C17.6024 38.6927 17.6814 38.8151 17.7904 38.9068C17.8995 38.9985 18.0336 39.0554 18.1753 39.07L18.7656 39.1174H18.8319H18.8817C21.7927 39.3426 26.7779 39.7053 30.0515 39.8997C30.232 39.9121 30.4104 39.8552 30.5505 39.7407C30.6905 39.6262 30.7817 39.4627 30.8054 39.2833C31.1159 37.1641 31.7251 34.0516 32.863 31.1951C32.9246 31.0363 32.991 30.8822 33.0574 30.721C32.8203 30.7661 32.5833 30.8064 32.3462 30.8301C32.2514 30.8301 32.1542 30.8491 32.0546 30.8538C31.7192 30.8763 31.3826 30.8763 31.0472 30.8538H31.014C30.7693 30.839 30.5256 30.8113 30.2839 30.7708C26.9249 30.2161 24.168 27.5493 23.2601 23.9817L25.5523 23.3535C26.209 25.9469 28.1812 28.0282 30.6228 28.2818C33.1711 28.5473 34.2308 27.5706 34.9277 26.997L36.3049 25.5415C37.2034 24.4724 38.7774 23.9177 40.3656 23.9201C40.4762 23.9085 40.588 23.9241 40.6912 23.9654C40.7945 24.0067 40.8861 24.0725 40.9583 24.1571C41.0053 24.2088 41.0444 24.2671 41.0744 24.3302C41.0821 24.3454 41.0885 24.3612 41.0934 24.3776C41.1314 24.4633 41.15 24.5564 41.1479 24.6502Z" fill="white"/>
<path id="Vector_8" d="M24.1702 52.8395C23.7894 52.399 23.2557 52.1195 22.6768 52.0572C22.6053 52.0477 22.5332 52.0429 22.4611 52.043H22.4421C22.1674 52.0437 21.8951 52.0943 21.6385 52.1923C21.5714 52.2181 21.5058 52.2474 21.4418 52.28C21.184 52.4085 20.9512 52.5819 20.7543 52.7921C20.2999 53.2832 20.0462 53.9269 20.0432 54.596C20.0266 56.0183 21.0909 57.2036 22.4137 57.2036H22.4421C23.0412 57.1998 23.6152 56.9625 24.0422 56.5422C24.1349 56.4542 24.2205 56.3591 24.2982 56.2577C24.5842 55.8766 24.7619 55.4253 24.8126 54.9516C24.8269 54.8558 24.834 54.7592 24.834 54.6624C24.8489 53.993 24.6121 53.3425 24.1702 52.8395ZM23.5065 55.063C23.469 55.1879 23.4139 55.3068 23.3429 55.4162C23.2484 55.5724 23.1167 55.7026 22.9595 55.7953C22.8023 55.888 22.6245 55.9402 22.4421 55.9472H22.4303C21.7997 55.9472 21.2948 55.3404 21.3043 54.6126C21.2971 54.3483 21.37 54.088 21.5134 53.8659C21.6568 53.6438 21.8641 53.4703 22.1079 53.3681C22.1929 53.3353 22.2824 53.3153 22.3734 53.3088C22.3978 53.3064 22.4224 53.3064 22.4469 53.3088H22.4421C22.591 53.3123 22.7375 53.3472 22.8719 53.4114C23.0063 53.4755 23.1256 53.5674 23.222 53.681C23.4497 53.9438 23.5722 54.2815 23.5657 54.6292C23.5667 54.7759 23.5467 54.9219 23.5065 55.063Z" fill="white"/>
<path id="Vector_9" d="M29.3833 22.0146C30.2853 22.0146 31.0166 21.2834 31.0166 20.3813C31.0166 19.4793 30.2853 18.748 29.3833 18.748C28.4812 18.748 27.75 19.4793 27.75 20.3813C27.75 21.2834 28.4812 22.0146 29.3833 22.0146Z" fill="white"/>
<path id="Vector_10" d="M35.1509 22.0048C36.0529 22.0048 36.7841 21.2736 36.7841 20.3716C36.7841 19.4695 36.0529 18.7383 35.1509 18.7383C34.2488 18.7383 33.5176 19.4695 33.5176 20.3716C33.5176 21.2736 34.2488 22.0048 35.1509 22.0048Z" fill="white"/>
</g>
</svg>
